<svg width="21" height="22" viewBox="0 0 21 22" fill="none" xmlns="http://www.w3.org/2000/svg">
<g clip-path="url(#clip0_1514_14772)">
<path d="M10.2985 13.5652C10.0002 13.5652 9.7179 13.424 9.52436 13.174C9.32274 12.912 9.24613 12.5773 9.32274 12.2749C9.37919 12.0611 9.34694 11.8434 9.23807 11.666C9.23 11.6539 9.22597 11.6458 9.21791 11.6337C9.105 11.4321 8.92355 11.291 8.7179 11.2305C8.41145 11.1418 8.15339 10.9039 8.03242 10.5894C7.91952 10.295 7.94371 9.97647 8.10097 9.72244C8.27032 9.40389 8.60097 9.21437 8.98807 9.21437C9.26629 9.21437 9.53242 9.31921 9.7179 9.50066C9.87113 9.64986 10.0808 9.73453 10.3106 9.73453H10.3227C10.5687 9.73453 10.7945 9.64582 10.9518 9.48856C11.1413 9.29905 11.3711 9.19824 11.6171 9.19824C12.0687 9.19824 12.5123 9.53695 12.6494 9.98453C12.7824 10.412 12.605 10.8273 12.1655 11.1257C12.0929 11.17 12.0123 11.2023 11.9276 11.2265C11.7098 11.287 11.5405 11.42 11.4397 11.6015L11.4356 11.6095C11.3187 11.8273 11.2784 12.0773 11.3268 12.3111C11.3873 12.6055 11.3066 12.9321 11.109 13.1821C10.9235 13.416 10.6655 13.5531 10.3832 13.5611C10.359 13.5611 10.3308 13.5652 10.2985 13.5652Z" fill="white"/>
<path d="M11.617 9.17383V9.21415C12.0565 9.21415 12.492 9.5448 12.6291 9.98834C12.7581 10.4037 12.5848 10.8109 12.1533 11.1053C12.0807 11.1456 12.0041 11.1819 11.9235 11.2021C11.7017 11.2625 11.5243 11.3996 11.4235 11.5892L11.4194 11.5972C11.2985 11.819 11.2581 12.073 11.3106 12.3109C11.371 12.6012 11.2904 12.9198 11.0968 13.1658C10.9154 13.3956 10.6654 13.5287 10.3872 13.5367C10.3589 13.5408 10.3267 13.5408 10.2985 13.5408C10.0041 13.5408 9.72991 13.3996 9.5404 13.1577C9.34282 12.8996 9.2662 12.573 9.34281 12.2746C9.39927 12.0529 9.36701 11.8311 9.25814 11.6496C9.25007 11.6375 9.24604 11.6295 9.23798 11.6174C9.12104 11.4117 8.93959 11.2666 8.72588 11.2061C8.42346 11.1214 8.17346 10.8875 8.05249 10.5771C7.93959 10.2867 7.96378 9.98028 8.12104 9.72625C8.28636 9.41576 8.61298 9.23028 8.98798 9.23028C9.26217 9.23028 9.52023 9.33109 9.70572 9.51254C9.86298 9.66576 10.0767 9.75044 10.3146 9.75044H10.3186H10.3227H10.3267C10.5767 9.75044 10.8065 9.66173 10.9678 9.50044C11.1533 9.31496 11.3791 9.21818 11.617 9.21818V9.17383ZM11.617 9.17383C11.3831 9.17383 11.1452 9.26254 10.9396 9.46818C10.7783 9.62947 10.5525 9.71012 10.3267 9.71012C10.3227 9.71012 10.3227 9.71012 10.3186 9.71012H10.3146C10.1009 9.71012 9.8912 9.63351 9.73394 9.48431C9.53636 9.29076 9.26217 9.18996 8.98798 9.18996C8.6291 9.18996 8.27427 9.35931 8.08475 9.70609C7.71781 10.2988 8.09685 11.073 8.71378 11.2464C8.92346 11.3069 9.09685 11.4521 9.20169 11.6375C9.20975 11.6496 9.21378 11.6577 9.22185 11.6698C9.33072 11.8472 9.35491 12.0609 9.30249 12.2625C9.14523 12.8754 9.61701 13.5771 10.2985 13.5771C10.3307 13.5771 10.3589 13.5771 10.3912 13.573C11.0364 13.5529 11.4718 12.8835 11.3509 12.2988C11.3025 12.065 11.3428 11.819 11.4557 11.6093C11.4557 11.6053 11.4598 11.6053 11.4598 11.6012C11.5565 11.4158 11.7339 11.2908 11.9356 11.2343C12.0202 11.2101 12.1009 11.1779 12.1775 11.1335C13.2743 10.3956 12.4839 9.17383 11.617 9.17383Z" fill="white"/>
<path d="M10.3266 1.96806C9.97172 1.96806 9.6814 1.67773 9.6814 1.3229C9.6814 0.968057 9.97172 0.677734 10.3266 0.677734C10.6814 0.677734 10.9717 0.968057 10.9717 1.3229C10.9717 1.67773 10.6854 1.96806 10.3266 1.96806Z" fill="white"/>
<path d="M12.2582 6.48012C12.2582 7.5527 11.3912 8.41964 10.3227 8.41964C9.25414 8.41964 8.38721 7.5527 8.38721 6.48415V6.48012C8.38721 6.12528 8.67753 5.83496 9.03237 5.83496C9.26221 5.83496 9.46382 5.95593 9.57672 6.13335C9.58479 6.14948 9.59285 6.16157 9.60092 6.1777C9.75011 6.41964 10.0162 6.58093 10.3227 6.58093C10.6291 6.58093 10.8953 6.41964 11.0445 6.1777C11.0525 6.16157 11.0606 6.14948 11.0687 6.13335C11.1816 5.95593 11.3832 5.83496 11.613 5.83496C11.9719 5.83899 12.2582 6.12528 12.2582 6.48012Z" fill="white"/>
<path d="M12.2582 3.41176C12.2582 3.60128 12.1775 3.77063 12.0485 3.88757C11.5929 4.29886 10.988 4.54886 10.3227 4.54886C9.65737 4.54886 9.05656 4.29886 8.59688 3.88757C8.46785 3.77063 8.38721 3.60128 8.38721 3.41176C8.38721 3.05692 8.67753 2.7666 9.03237 2.7666C9.25817 2.7666 9.45979 2.88354 9.57269 3.06096C9.58076 3.07709 9.59285 3.09725 9.60092 3.11338C9.75011 3.35531 10.0162 3.51257 10.3187 3.51257C10.6211 3.51257 10.8872 3.35128 11.0364 3.11338C11.0485 3.09725 11.0566 3.08112 11.0646 3.06096C11.1775 2.88354 11.3791 2.7666 11.6049 2.7666C11.9719 2.7666 12.2582 3.05289 12.2582 3.41176Z" fill="white"/>
<path d="M10.3266 21.3225C9.97172 21.3225 9.6814 21.0322 9.6814 20.6774C9.6814 20.3225 9.97172 20.0322 10.3266 20.0322C10.6814 20.0322 10.9717 20.3225 10.9717 20.6774C10.9717 21.0322 10.6854 21.3225 10.3266 21.3225Z" fill="white"/>
<path d="M10.9113 17.073C10.8629 17.1899 10.8347 17.3149 10.8347 17.448C10.8347 17.581 10.8629 17.7101 10.9113 17.823C10.9153 17.827 10.9153 17.8351 10.9194 17.8391C10.9516 17.9157 10.9718 18.0004 10.9718 18.0891C10.9718 18.4439 10.6815 18.7342 10.3266 18.7342C9.97179 18.7342 9.68147 18.4439 9.68147 18.0891C9.68147 18.0004 9.6976 17.9197 9.72985 17.8431C9.73389 17.8351 9.73792 17.823 9.74195 17.8149C9.79034 17.702 9.81453 17.573 9.81453 17.4439C9.81453 17.3149 9.78631 17.1859 9.74195 17.073C9.73792 17.0649 9.73389 17.0568 9.72985 17.0488C9.71776 17.0205 9.70969 16.9923 9.70163 16.9601L9.41534 16.1536C9.37905 16.0528 9.35889 15.9439 9.35889 15.831C9.35889 15.2988 9.79034 14.8633 10.3266 14.8633C10.8589 14.8633 11.2944 15.2988 11.2944 15.831C11.2944 15.9439 11.2742 16.0528 11.2379 16.1536L10.9516 16.956C10.9436 16.9883 10.9315 17.0205 10.9194 17.0488C10.9153 17.0649 10.9113 17.0689 10.9113 17.073Z" fill="white"/>
<path d="M19.266 5.83982C19.4434 6.1503 19.3386 6.54143 19.0281 6.72288C18.7176 6.9003 18.3265 6.79546 18.145 6.48498C17.9676 6.17449 18.0724 5.78337 18.3829 5.60191C18.6934 5.42449 19.0845 5.53337 19.266 5.83982Z" fill="white"/>
<path d="M15.2943 7.45722C15.4193 7.44109 15.5443 7.40076 15.6572 7.33625C15.7741 7.2677 15.8709 7.18302 15.9434 7.08222C15.9475 7.07818 15.9515 7.07012 15.9555 7.06609C16.0039 6.99754 16.0725 6.94109 16.1491 6.89673C16.4555 6.71931 16.8507 6.82415 17.0322 7.13464C17.2096 7.44512 17.1047 7.83625 16.7943 8.0177C16.7176 8.06206 16.637 8.08625 16.5564 8.09835C16.5483 8.09835 16.5362 8.10238 16.5281 8.10238C16.4031 8.11851 16.2822 8.15883 16.1693 8.22335C16.0564 8.28786 15.9596 8.37657 15.883 8.47335C15.8789 8.48141 15.8709 8.48947 15.8668 8.49754C15.8467 8.52173 15.8265 8.54593 15.8064 8.56609L15.2539 9.21931C15.1854 9.29996 15.1007 9.37254 15.0039 9.42899C14.5402 9.69512 13.9475 9.53786 13.6814 9.07415C13.4152 8.61044 13.5725 8.0177 14.0362 7.75157C14.133 7.69512 14.2378 7.65883 14.3426 7.63867L15.1814 7.48544C15.2136 7.47738 15.2459 7.46931 15.2781 7.46528C15.2822 7.46125 15.2862 7.45722 15.2943 7.45722Z" fill="white"/>
<path d="M1.38314 5.83874C1.56056 5.52825 1.95572 5.42341 2.26621 5.60083C2.57669 5.77825 2.68153 6.17341 2.50411 6.4839C2.32669 6.79438 1.93153 6.89922 1.62105 6.7218C1.31056 6.54035 1.20169 6.14519 1.38314 5.83874Z" fill="white"/>
<path d="M4.77015 8.46859C4.69354 8.36778 4.59676 8.27907 4.48386 8.21456C4.36692 8.14601 4.24596 8.10568 4.12096 8.09359C4.11289 8.09359 4.10886 8.09359 4.1008 8.08956C4.01612 8.07746 3.93547 8.05327 3.85886 8.00891C3.55241 7.83149 3.44354 7.43633 3.62096 7.12585C3.79838 6.81536 4.19354 6.71052 4.50402 6.88794C4.58063 6.9323 4.64112 6.98875 4.69354 7.05327C4.7016 7.06133 4.70563 7.06939 4.70967 7.07746C4.78628 7.17827 4.87902 7.26294 4.99596 7.32746C5.10886 7.39198 5.23386 7.4323 5.35483 7.44843C5.36289 7.44843 5.37499 7.45246 5.38305 7.45246C5.41531 7.45649 5.44354 7.46052 5.47176 7.47262L6.31451 7.62585C6.41934 7.64601 6.52418 7.6823 6.62096 7.73875C7.08467 8.00488 7.24192 8.59762 6.9758 9.06133C6.70967 9.52504 6.11692 9.6823 5.65321 9.41617C5.55644 9.35972 5.47176 9.28714 5.40321 9.20649L4.8508 8.5573C4.8266 8.5331 4.80644 8.50891 4.78628 8.48472C4.77418 8.47665 4.77015 8.47262 4.77015 8.46859Z" fill="white"/>
<path d="M18.1492 15.5126C18.3266 15.2021 18.7218 15.0972 19.0322 15.2747C19.3427 15.4521 19.4476 15.8472 19.2701 16.1577C19.0927 16.4682 18.6976 16.573 18.3871 16.3956C18.0766 16.2142 17.9718 15.823 18.1492 15.5126Z" fill="white"/>
<path d="M13.2741 14.9317C12.3467 14.3954 12.0282 13.214 12.5604 12.2866C13.0927 11.3592 14.2782 11.0406 15.2056 11.5769H15.2096C15.5161 11.7543 15.6209 12.1495 15.4435 12.4559C15.3306 12.6535 15.1249 12.7704 14.9153 12.7785C14.8991 12.7785 14.883 12.7785 14.8628 12.7785C14.5806 12.7866 14.3064 12.9398 14.1532 13.2019C13.9999 13.464 14.008 13.7785 14.1411 14.0285C14.1491 14.0446 14.1572 14.0567 14.1653 14.0729C14.262 14.2624 14.2661 14.4963 14.1532 14.6938C13.9757 15.0043 13.5806 15.1092 13.2741 14.9317Z" fill="white"/>
<path d="M15.9355 16.4645C15.7701 16.3717 15.6653 16.2145 15.629 16.0411C15.5 15.4403 15.5846 14.7911 15.9193 14.2185C16.25 13.6459 16.7701 13.2467 17.3508 13.0532C17.5161 13.0007 17.7056 13.0128 17.8709 13.1096C18.1814 13.287 18.2863 13.6822 18.1088 13.9927C17.9959 14.1903 17.7943 14.3032 17.5846 14.3153C17.5645 14.3153 17.5443 14.3153 17.5242 14.3153C17.2419 14.3233 16.9717 14.4766 16.8185 14.7387C16.6653 15.0007 16.6734 15.3112 16.8064 15.5612C16.8145 15.5774 16.8266 15.5975 16.8346 15.6137C16.9314 15.8032 16.9314 16.033 16.8185 16.2306C16.6371 16.537 16.2419 16.6419 15.9355 16.4645Z" fill="white"/>
<path d="M2.50405 15.5163C2.68147 15.8268 2.57663 16.2179 2.27018 16.3994C1.95969 16.5768 1.56856 16.472 1.38711 16.1655C1.20969 15.855 1.31453 15.4639 1.62098 15.2825C1.93147 15.101 2.32259 15.2099 2.50405 15.5163Z" fill="white"/>
<path d="M5.44349 11.5849C6.37091 11.0486 7.5564 11.3671 8.08866 12.2905C8.62495 13.2179 8.3064 14.3994 7.38301 14.9357H7.37898C7.07253 15.1131 6.67736 15.0082 6.49995 14.6978C6.38704 14.5002 6.38704 14.2663 6.48382 14.0768C6.49188 14.0607 6.49995 14.0486 6.50801 14.0324C6.64107 13.7824 6.64914 13.472 6.49591 13.2058C6.34269 12.9437 6.07253 12.7905 5.78624 12.7824C5.77011 12.7824 5.74995 12.7824 5.73382 12.7824C5.52011 12.7744 5.31849 12.6574 5.20559 12.4599C5.0322 12.1574 5.13704 11.7663 5.44349 11.5849Z" fill="white"/>
<path d="M2.78625 13.1212C2.95157 13.0285 3.13705 13.0124 3.30641 13.0648C3.89109 13.2543 4.41125 13.6535 4.74189 14.2261C5.07254 14.7987 5.16125 15.4478 5.03221 16.0487C4.99592 16.222 4.88705 16.3753 4.72576 16.472C4.41528 16.6495 4.02415 16.5446 3.8427 16.2382C3.7298 16.0406 3.7298 15.8108 3.82657 15.6212C3.83867 15.6051 3.84673 15.589 3.8548 15.5688C3.98786 15.3188 3.99189 15.0083 3.8427 14.7462C3.68947 14.4841 3.41931 14.3349 3.13705 14.3228C3.11689 14.3228 3.09673 14.3228 3.07657 14.3228C2.86689 14.3108 2.66528 14.1978 2.54834 14.0003C2.37092 13.6938 2.47576 13.3027 2.78625 13.1212Z" fill="white"/>
<path d="M20.0001 11.6458C20.3565 11.6458 20.6453 11.3569 20.6453 11.0006C20.6453 10.6443 20.3565 10.3555 20.0001 10.3555C19.6438 10.3555 19.355 10.6443 19.355 11.0006C19.355 11.3569 19.6438 11.6458 20.0001 11.6458Z" fill="white"/>
<path d="M19.4678 9.21394C19.2097 9.65749 18.8629 9.83894 18.742 9.88733C18.7178 9.89539 18.6936 9.8833 18.6895 9.85507C18.6694 9.72604 18.6532 9.33491 18.9153 8.8833C19.0081 8.72604 19.2097 8.67362 19.367 8.77039C19.5121 8.86314 19.5565 9.06072 19.4678 9.21394Z" fill="white"/>
<path d="M18.9074 13.1094C18.6534 12.6618 18.6695 12.2747 18.6856 12.1457C18.6896 12.1215 18.7138 12.1054 18.738 12.1134C18.859 12.1578 19.2058 12.3433 19.4679 12.7908C19.5606 12.9481 19.5001 13.1497 19.3388 13.2384C19.1896 13.3231 18.9961 13.2626 18.9074 13.1094Z" fill="white"/>
<path d="M18.0484 11.6458C17.0162 11.6418 16.3589 11.2264 16.1613 11.0651C16.121 11.0329 16.121 10.9724 16.1613 10.9401C16.363 10.7789 17.0242 10.3555 18.0686 10.3555C18.4315 10.3555 18.7259 10.6579 18.7138 11.0248C18.6976 11.3716 18.3992 11.6458 18.0484 11.6458Z" fill="white"/>
<path d="M15.1613 20.0237C15.5176 20.0237 15.8064 19.7349 15.8064 19.3786C15.8064 19.0222 15.5176 18.7334 15.1613 18.7334C14.805 18.7334 14.5161 19.0222 14.5161 19.3786C14.5161 19.7349 14.805 20.0237 15.1613 20.0237Z" fill="white"/>
<path d="M16.4435 18.028C15.9274 18.0239 15.6008 17.8183 15.5 17.7377C15.4798 17.7215 15.4798 17.6893 15.5 17.6731C15.6008 17.5925 15.9314 17.3828 16.4516 17.3828C16.633 17.3828 16.7822 17.532 16.7742 17.7175C16.7701 17.8909 16.621 18.028 16.4435 18.028Z" fill="white"/>
<path d="M12.7903 19.4922C13.0483 19.0487 13.3951 18.8672 13.5161 18.8189C13.5403 18.8108 13.5645 18.8229 13.5685 18.8511C13.5886 18.9801 13.6048 19.3713 13.3427 19.8229C13.2499 19.9801 13.0483 20.0326 12.8911 19.9358C12.7459 19.839 12.7015 19.6414 12.7903 19.4922Z" fill="white"/>
<path d="M13.6289 18.0121C13.1168 17.1169 13.149 16.3387 13.1893 16.0847C13.1974 16.0323 13.2498 16.004 13.2982 16.0202C13.5401 16.1129 14.2337 16.4758 14.7579 17.379C14.9393 17.6935 14.8264 18.0968 14.5039 18.2702C14.1893 18.4395 13.8022 18.3145 13.6289 18.0121Z" fill="white"/>
<path d="M5.48378 20.0286C5.8401 20.0286 6.12895 19.7398 6.12895 19.3834C6.12895 19.0271 5.8401 18.7383 5.48378 18.7383C5.12747 18.7383 4.83862 19.0271 4.83862 19.3834C4.83862 19.7398 5.12747 20.0286 5.48378 20.0286Z" fill="white"/>
<path d="M7.29825 19.8154C7.04421 19.3679 7.05631 18.9808 7.07647 18.8517C7.0805 18.8275 7.1047 18.8114 7.12889 18.8195C7.24986 18.8638 7.59663 19.0493 7.85873 19.4969C7.95147 19.6542 7.89099 19.8558 7.7297 19.9445C7.5805 20.0292 7.38696 19.9687 7.29825 19.8154Z" fill="white"/>
<path d="M4.20156 17.3799C4.71769 17.3839 5.0443 17.5896 5.14511 17.6702C5.16527 17.6863 5.16527 17.7186 5.14511 17.7347C5.0443 17.8154 4.71366 18.025 4.1935 18.025C4.01205 18.025 3.86285 17.8758 3.87092 17.6904C3.87898 17.517 4.02818 17.3799 4.20156 17.3799Z" fill="white"/>
<path d="M5.90318 17.3674C6.42334 16.4763 7.11285 16.1134 7.35076 16.0247C7.39914 16.0045 7.45156 16.0368 7.45963 16.0851C7.49995 16.3392 7.53221 17.1255 7.01205 18.0287C6.83059 18.3432 6.42334 18.448 6.11285 18.2545C5.81447 18.069 5.72576 17.6698 5.90318 17.3674Z" fill="white"/>
<path d="M0.645161 11.6448C1.00147 11.6448 1.29032 11.356 1.29032 10.9997C1.29032 10.6433 1.00147 10.3545 0.645161 10.3545C0.288849 10.3545 0 10.6433 0 10.9997C0 11.356 0.288849 11.6448 0.645161 11.6448Z" fill="white"/>
<path d="M1.17746 12.7862C1.43553 12.3426 1.7823 12.1612 1.90327 12.1128C1.92746 12.1047 1.95166 12.1168 1.95569 12.1451C1.97585 12.2741 1.99198 12.6652 1.72988 13.1168C1.63714 13.2741 1.43553 13.3265 1.27827 13.2297C1.13311 13.137 1.08875 12.9394 1.17746 12.7862Z" fill="white"/>
<path d="M1.73795 8.89113C1.99198 9.33871 1.97586 9.7258 1.95973 9.85484C1.95569 9.87903 1.9315 9.89516 1.90731 9.88709C1.78634 9.84274 1.43956 9.65726 1.17747 9.20968C1.08473 9.05242 1.14521 8.8508 1.3065 8.76209C1.45569 8.67742 1.64924 8.7379 1.73795 8.89113Z" fill="white"/>
<path d="M2.59683 10.3545C3.62909 10.3585 4.28635 10.7738 4.48393 10.9351C4.52425 10.9674 4.52425 11.0279 4.48393 11.0601C4.28232 11.2214 3.62103 11.6448 2.57667 11.6448C2.21377 11.6448 1.91942 11.3424 1.93151 10.9755C1.94764 10.6287 2.24603 10.3545 2.59683 10.3545Z" fill="white"/>
<path d="M5.48378 3.262C5.8401 3.262 6.12895 2.97315 6.12895 2.61684C6.12895 2.26053 5.8401 1.97168 5.48378 1.97168C5.12747 1.97168 4.83862 2.26053 4.83862 2.61684C4.83862 2.97315 5.12747 3.262 5.48378 3.262Z" fill="white"/>
<path d="M4.20158 3.9707C4.71771 3.97474 5.04432 4.18038 5.14513 4.26103C5.16529 4.27715 5.16529 4.30941 5.14513 4.32554C5.04432 4.40619 4.71367 4.61586 4.19351 4.61586C4.01206 4.61586 3.8669 4.46667 3.87093 4.28119C3.879 4.1078 4.02819 3.9707 4.20158 3.9707Z" fill="white"/>
<path d="M7.85887 2.50789C7.60081 2.95144 7.25403 3.13289 7.13307 3.18127C7.10887 3.18934 7.08468 3.17724 7.08065 3.14902C7.06049 3.01998 7.04436 2.62885 7.30645 2.17724C7.3992 2.01998 7.60081 1.96756 7.75807 2.06434C7.90323 2.16111 7.94758 2.35869 7.85887 2.50789Z" fill="white"/>
<path d="M7.02015 3.98733C7.53224 4.88249 7.49998 5.66072 7.45966 5.91475C7.4516 5.96717 7.39918 5.9954 7.35079 5.97927C7.10885 5.88653 6.41531 5.52362 5.89514 4.6204C5.71369 4.30588 5.8266 3.90266 6.14918 3.72927C6.45966 3.55991 6.84676 3.68088 7.02015 3.98733Z" fill="white"/>
<path d="M15.1613 3.26688C15.5176 3.26688 15.8064 2.97804 15.8064 2.62172C15.8064 2.26541 15.5176 1.97656 15.1613 1.97656C14.805 1.97656 14.5161 2.26541 14.5161 2.62172C14.5161 2.97804 14.805 3.26688 15.1613 3.26688Z" fill="white"/>
<path d="M13.3509 2.18643C13.6049 2.63401 13.5888 3.0211 13.5686 3.15014C13.5646 3.17433 13.5404 3.19046 13.5162 3.18239C13.3952 3.13804 13.0485 2.95255 12.7864 2.50094C12.6936 2.34368 12.7541 2.14207 12.9154 2.05336C13.0686 1.97272 13.2622 2.0332 13.3509 2.18643Z" fill="white"/>
<path d="M16.4435 4.62172C15.9274 4.61769 15.6008 4.41205 15.5 4.3314C15.4798 4.31527 15.4798 4.28301 15.5 4.26688C15.6008 4.18624 15.9314 3.97656 16.4516 3.97656C16.633 3.97656 16.7782 4.12576 16.7742 4.31124C16.7701 4.48463 16.621 4.62172 16.4435 4.62172Z" fill="white"/>
<path d="M14.7461 4.63394C14.226 5.52507 13.5365 5.88394 13.2986 5.97668C13.2502 5.99684 13.1977 5.96458 13.1897 5.9162C13.1494 5.66216 13.1171 4.87587 13.6373 3.97265C13.8187 3.65813 14.226 3.55329 14.5365 3.74684C14.8348 3.93636 14.9236 4.33152 14.7461 4.63394Z" fill="white"/>
</g>
<defs>
<clipPath id="clip0_1514_14772">
<rect width="20.6452" height="20.6452" fill="white" transform="translate(0 0.677734)"/>
</clipPath>
</defs>
</svg>
