<svg width="49" height="48" viewBox="0 0 49 48" fill="none" xmlns="http://www.w3.org/2000/svg">
<g clip-path="url(#clip0_1635_13027)">
<path d="M24.1937 29.9637C23.5 29.9637 22.8438 29.6355 22.3937 29.0543C21.925 28.4449 21.7469 27.6668 21.925 26.9637C22.0562 26.4668 21.9813 25.9605 21.7281 25.548C21.7094 25.5199 21.7 25.5012 21.6813 25.473C21.4188 25.0043 20.9969 24.6762 20.5187 24.5355C19.8062 24.3293 19.2063 23.7762 18.925 23.0449C18.6625 22.3605 18.7187 21.6199 19.0844 21.0293C19.4781 20.2887 20.2469 19.848 21.1469 19.848C21.7937 19.848 22.4125 20.0918 22.8438 20.5137C23.2 20.8605 23.6875 21.0574 24.2219 21.0574H24.25C24.8219 21.0574 25.3469 20.8512 25.7125 20.4855C26.1531 20.0449 26.6875 19.8105 27.2594 19.8105C28.3094 19.8105 29.3406 20.598 29.6594 21.6387C29.9688 22.6324 29.5563 23.598 28.5344 24.2918C28.3656 24.3949 28.1781 24.4699 27.9812 24.5262C27.475 24.6668 27.0813 24.9762 26.8469 25.398L26.8375 25.4168C26.5656 25.923 26.4719 26.5043 26.5844 27.048C26.725 27.7324 26.5375 28.4918 26.0781 29.073C25.6469 29.6168 25.0469 29.9355 24.3906 29.9543C24.3344 29.9543 24.2687 29.9637 24.1937 29.9637Z" fill="#002D6E"/>
<path d="M27.2594 19.7539V19.8477C28.2813 19.8477 29.2938 20.6164 29.6125 21.6477C29.9125 22.6133 29.5094 23.5602 28.5063 24.2445C28.3375 24.3383 28.1594 24.4227 27.9719 24.4695C27.4563 24.6102 27.0438 24.9289 26.8094 25.3695L26.8 25.3883C26.5188 25.9039 26.425 26.4945 26.5469 27.0477C26.6875 27.7227 26.5 28.4633 26.05 29.0352C25.6281 29.5695 25.0469 29.8789 24.4 29.8977C24.3344 29.907 24.2594 29.907 24.1938 29.907C23.5094 29.907 22.8719 29.5789 22.4313 29.0164C21.9719 28.4164 21.7938 27.657 21.9719 26.9633C22.1031 26.4477 22.0281 25.932 21.775 25.5102C21.7563 25.482 21.7469 25.4633 21.7281 25.4352C21.4563 24.957 21.0344 24.6195 20.5375 24.4789C19.8344 24.282 19.2531 23.7383 18.9719 23.0164C18.7094 22.3414 18.7656 21.6289 19.1313 21.0383C19.5156 20.3164 20.275 19.8852 21.1469 19.8852C21.7844 19.8852 22.3844 20.1195 22.8156 20.5414C23.1813 20.8977 23.6781 21.0945 24.2313 21.0945H24.2406H24.25H24.2594C24.8406 21.0945 25.375 20.8883 25.75 20.5133C26.1813 20.082 26.7063 19.857 27.2594 19.857V19.7539ZM27.2594 19.7539C26.7156 19.7539 26.1625 19.9602 25.6844 20.4383C25.3094 20.8133 24.7844 21.0008 24.2594 21.0008C24.25 21.0008 24.25 21.0008 24.2406 21.0008H24.2313C23.7344 21.0008 23.2469 20.8227 22.8813 20.4758C22.4219 20.0258 21.7844 19.7914 21.1469 19.7914C20.3125 19.7914 19.4875 20.1852 19.0469 20.9914C18.1938 22.3695 19.075 24.1695 20.5094 24.5727C20.9969 24.7133 21.4 25.0508 21.6438 25.482C21.6625 25.5102 21.6719 25.5289 21.6906 25.557C21.9438 25.9695 22 26.4664 21.8781 26.9352C21.5125 28.3602 22.6094 29.9914 24.1938 29.9914C24.2688 29.9914 24.3344 29.9914 24.4094 29.982C25.9094 29.9352 26.9219 28.3789 26.6406 27.0195C26.5281 26.4758 26.6219 25.9039 26.8844 25.4164C26.8844 25.407 26.8938 25.407 26.8938 25.3977C27.1188 24.9664 27.5313 24.6758 28 24.5445C28.1969 24.4883 28.3844 24.4133 28.5625 24.3102C31.1125 22.5945 29.275 19.7539 27.2594 19.7539Z" fill="#002D6E"/>
<path d="M24.2594 3C23.4344 3 22.7594 2.325 22.7594 1.5C22.7594 0.675 23.4344 0 24.2594 0C25.0844 0 25.7594 0.675 25.7594 1.5C25.7594 2.325 25.0938 3 24.2594 3Z" fill="#002D6E"/>
<path d="M28.75 13.4902C28.75 15.984 26.7344 17.9996 24.25 17.9996C21.7656 17.9996 19.75 15.984 19.75 13.4996V13.4902C19.75 12.6652 20.425 11.9902 21.25 11.9902C21.7844 11.9902 22.2531 12.2715 22.5156 12.684C22.5344 12.7215 22.5531 12.7496 22.5719 12.7871C22.9188 13.3496 23.5375 13.7246 24.25 13.7246C24.9625 13.7246 25.5812 13.3496 25.9281 12.7871C25.9469 12.7496 25.9656 12.7215 25.9844 12.684C26.2469 12.2715 26.7156 11.9902 27.25 11.9902C28.0844 11.9996 28.75 12.6652 28.75 13.4902Z" fill="#002D6E"/>
<path d="M28.75 6.35645C28.75 6.79707 28.5625 7.19082 28.2625 7.4627C27.2031 8.41895 25.7969 9.0002 24.25 9.0002C22.7031 9.0002 21.3062 8.41895 20.2375 7.4627C19.9375 7.19082 19.75 6.79707 19.75 6.35645C19.75 5.53145 20.425 4.85645 21.25 4.85645C21.775 4.85645 22.2437 5.12832 22.5062 5.54082C22.525 5.57832 22.5531 5.6252 22.5719 5.6627C22.9188 6.2252 23.5375 6.59082 24.2406 6.59082C24.9437 6.59082 25.5625 6.21582 25.9094 5.6627C25.9375 5.6252 25.9562 5.5877 25.975 5.54082C26.2375 5.12832 26.7062 4.85645 27.2312 4.85645C28.0844 4.85645 28.75 5.52207 28.75 6.35645Z" fill="#002D6E"/>
<path d="M24.2594 47.998C23.4344 47.998 22.7594 47.323 22.7594 46.498C22.7594 45.673 23.4344 44.998 24.2594 44.998C25.0844 44.998 25.7594 45.673 25.7594 46.498C25.7594 47.323 25.0938 47.998 24.2594 47.998Z" fill="#002D6E"/>
<path d="M25.6188 38.1189C25.5063 38.3908 25.4407 38.6814 25.4407 38.9908C25.4407 39.3002 25.5063 39.6002 25.6188 39.8627C25.6281 39.8721 25.6281 39.8908 25.6375 39.9002C25.7125 40.0783 25.7594 40.2752 25.7594 40.4814C25.7594 41.3064 25.0844 41.9814 24.2594 41.9814C23.4344 41.9814 22.7594 41.3064 22.7594 40.4814C22.7594 40.2752 22.7969 40.0877 22.8719 39.9096C22.8813 39.8908 22.8906 39.8627 22.9 39.8439C23.0125 39.5814 23.0688 39.2814 23.0688 38.9814C23.0688 38.6814 23.0031 38.3814 22.9 38.1189C22.8906 38.1002 22.8813 38.0814 22.8719 38.0627C22.8438 37.9971 22.825 37.9314 22.8063 37.8564L22.1406 35.9814C22.0563 35.7471 22.0094 35.4939 22.0094 35.2314C22.0094 33.9939 23.0125 32.9814 24.2594 32.9814C25.4969 32.9814 26.5094 33.9939 26.5094 35.2314C26.5094 35.4939 26.4625 35.7471 26.3782 35.9814L25.7125 37.8471C25.6938 37.9221 25.6656 37.9971 25.6375 38.0627C25.6281 38.1002 25.6188 38.1096 25.6188 38.1189Z" fill="#002D6E"/>
<path d="M45.0436 12.0005C45.4561 12.7224 45.2123 13.6317 44.4904 14.0536C43.7686 14.4661 42.8592 14.2224 42.4373 13.5005C42.0248 12.7786 42.2686 11.8692 42.9904 11.4474C43.7123 11.0349 44.6217 11.288 45.0436 12.0005Z" fill="#002D6E"/>
<path d="M35.8093 15.7633C36.0999 15.7258 36.3905 15.632 36.653 15.482C36.9249 15.3226 37.1499 15.1258 37.3187 14.8914C37.328 14.882 37.3374 14.8633 37.3468 14.8539C37.4593 14.6945 37.6187 14.5633 37.7968 14.4601C38.5093 14.0476 39.428 14.2914 39.8499 15.0133C40.2624 15.7351 40.0187 16.6445 39.2968 17.0664C39.1187 17.1695 38.9312 17.2258 38.7437 17.2539C38.7249 17.2539 38.6968 17.2633 38.678 17.2633C38.3874 17.3008 38.1062 17.3945 37.8437 17.5445C37.5812 17.6945 37.3562 17.9008 37.178 18.1258C37.1687 18.1445 37.1499 18.1633 37.1405 18.182C37.0937 18.2383 37.0468 18.2945 36.9999 18.3414L35.7155 19.8601C35.5562 20.0476 35.3593 20.2164 35.1343 20.3476C34.0562 20.9664 32.678 20.6008 32.0593 19.5226C31.4405 18.4445 31.8062 17.0664 32.8843 16.4476C33.1093 16.3164 33.353 16.232 33.5968 16.1851L35.5468 15.8289C35.6218 15.8101 35.6968 15.7914 35.7718 15.782C35.7812 15.7726 35.7905 15.7633 35.8093 15.7633Z" fill="#002D6E"/>
<path d="M3.46566 11.9996C3.87816 11.2777 4.79691 11.034 5.51878 11.4465C6.24066 11.859 6.48441 12.7777 6.07191 13.4996C5.65941 14.2215 4.74066 14.4652 4.01878 14.0527C3.29691 13.6308 3.04378 12.7121 3.46566 11.9996Z" fill="#002D6E"/>
<path d="M11.3406 18.1137C11.1624 17.8793 10.9374 17.673 10.6749 17.523C10.4031 17.3637 10.1218 17.2699 9.83119 17.2418C9.81244 17.2418 9.80306 17.2418 9.78431 17.2324C9.58744 17.2043 9.39994 17.148 9.22181 17.0449C8.50931 16.6324 8.25619 15.7137 8.66869 14.9918C9.08119 14.2699 9.99994 14.0262 10.7218 14.4387C10.8999 14.5418 11.0406 14.673 11.1624 14.823C11.1812 14.8418 11.1906 14.8605 11.1999 14.8793C11.3781 15.1137 11.5937 15.3105 11.8656 15.4605C12.1281 15.6105 12.4187 15.7043 12.6999 15.7418C12.7187 15.7418 12.7468 15.7512 12.7656 15.7512C12.8406 15.7605 12.9062 15.7699 12.9718 15.798L14.9312 16.1543C15.1749 16.2012 15.4187 16.2855 15.6437 16.4168C16.7218 17.0355 17.0874 18.4137 16.4687 19.4918C15.8499 20.5699 14.4718 20.9355 13.3937 20.3168C13.1687 20.1855 12.9718 20.0168 12.8124 19.8293L11.5281 18.3199C11.4718 18.2637 11.4249 18.2074 11.3781 18.1512C11.3499 18.1324 11.3406 18.123 11.3406 18.1137Z" fill="#002D6E"/>
<path d="M42.4468 34.4898C42.8593 33.768 43.7781 33.5242 44.5 33.9367C45.2218 34.3492 45.4656 35.268 45.0531 35.9898C44.6406 36.7117 43.7218 36.9555 43 36.543C42.2781 36.1211 42.0343 35.2117 42.4468 34.4898Z" fill="#002D6E"/>
<path d="M31.1124 33.14C28.9561 31.8931 28.2155 29.1463 29.453 26.99C30.6905 24.8338 33.4467 24.0931 35.603 25.34H35.6124C36.3249 25.7525 36.5686 26.6713 36.1561 27.3838C35.8936 27.8431 35.4155 28.115 34.928 28.1338C34.8905 28.1338 34.853 28.1338 34.8061 28.1338C34.1499 28.1525 33.5124 28.5088 33.1561 29.1181C32.7999 29.7275 32.8186 30.4588 33.128 31.04C33.1467 31.0775 33.1655 31.1056 33.1842 31.1431C33.4092 31.5838 33.4186 32.1275 33.1561 32.5869C32.7436 33.3088 31.8249 33.5525 31.1124 33.14Z" fill="#002D6E"/>
<path d="M37.3 36.7038C36.9156 36.4882 36.6718 36.1226 36.5875 35.7194C36.2875 34.3226 36.4843 32.8132 37.2625 31.4819C38.0312 30.1507 39.2406 29.2226 40.5906 28.7726C40.975 28.6507 41.4156 28.6788 41.8 28.9038C42.5218 29.3163 42.7656 30.2351 42.3531 30.9569C42.0906 31.4163 41.6218 31.6788 41.1343 31.7069C41.0875 31.7069 41.0406 31.7069 40.9937 31.7069C40.3375 31.7257 39.7093 32.0819 39.3531 32.6913C38.9968 33.3007 39.0156 34.0226 39.325 34.6038C39.3437 34.6413 39.3718 34.6882 39.3906 34.7257C39.6156 35.1663 39.6156 35.7007 39.3531 36.1601C38.9312 36.8726 38.0125 37.1163 37.3 36.7038Z" fill="#002D6E"/>
<path d="M6.07176 34.4986C6.48426 35.2205 6.24051 36.1299 5.52801 36.5518C4.80614 36.9643 3.89676 36.7205 3.47489 36.008C3.06239 35.2861 3.30614 34.3768 4.01864 33.9549C4.74051 33.533 5.64989 33.7861 6.07176 34.4986Z" fill="#002D6E"/>
<path d="M12.9061 25.3599C15.0624 24.113 17.8186 24.8536 19.0561 27.0005C20.303 29.1568 19.5624 31.9036 17.4155 33.1505H17.4061C16.6936 33.563 15.7749 33.3193 15.3624 32.5974C15.0999 32.138 15.0999 31.5943 15.3249 31.1536C15.3436 31.1161 15.3624 31.088 15.3811 31.0505C15.6905 30.4693 15.7092 29.7474 15.353 29.1286C14.9967 28.5193 14.3686 28.163 13.703 28.1443C13.6655 28.1443 13.6186 28.1443 13.5811 28.1443C13.0842 28.1255 12.6155 27.8536 12.353 27.3943C11.9499 26.6911 12.1936 25.7818 12.9061 25.3599Z" fill="#002D6E"/>
<path d="M6.72812 28.9306C7.11249 28.715 7.54374 28.6775 7.93749 28.7994C9.29687 29.24 10.5062 30.1681 11.275 31.4994C12.0437 32.8306 12.25 34.34 11.95 35.7369C11.8656 36.14 11.6125 36.4962 11.2375 36.7212C10.5156 37.1337 9.60624 36.89 9.18437 36.1775C8.92187 35.7181 8.92187 35.1837 9.14687 34.7431C9.17499 34.7056 9.19374 34.6681 9.21249 34.6212C9.52187 34.04 9.53124 33.3181 9.18437 32.7087C8.82812 32.0994 8.19999 31.7525 7.54374 31.7244C7.49687 31.7244 7.44999 31.7244 7.40312 31.7244C6.91562 31.6962 6.44687 31.4337 6.17499 30.9744C5.76249 30.2619 6.00624 29.3525 6.72812 28.9306Z" fill="#002D6E"/>
<path d="M46.75 25.501C47.5784 25.501 48.25 24.8294 48.25 24.001C48.25 23.1725 47.5784 22.501 46.75 22.501C45.9216 22.501 45.25 23.1725 45.25 24.001C45.25 24.8294 45.9216 25.501 46.75 25.501Z" fill="#002D6E"/>
<path d="M45.5124 19.8457C44.9124 20.8769 44.1062 21.2988 43.8249 21.4113C43.7687 21.4301 43.7124 21.4019 43.703 21.3363C43.6562 21.0363 43.6187 20.1269 44.228 19.0769C44.4437 18.7113 44.9124 18.5894 45.278 18.8144C45.6155 19.0301 45.7187 19.4894 45.5124 19.8457Z" fill="#002D6E"/>
<path d="M44.2092 28.9025C43.6186 27.8619 43.6561 26.9619 43.6936 26.6619C43.703 26.6057 43.7592 26.5682 43.8155 26.5869C44.0967 26.69 44.903 27.1213 45.5124 28.1619C45.728 28.5275 45.5874 28.9963 45.2124 29.2025C44.8655 29.3994 44.4155 29.2588 44.2092 28.9025Z" fill="#002D6E"/>
<path d="M42.2125 25.501C39.8125 25.4916 38.2843 24.526 37.825 24.151C37.7312 24.076 37.7312 23.9354 37.825 23.8604C38.2937 23.4854 39.8312 22.501 42.2593 22.501C43.1031 22.501 43.7875 23.2041 43.7593 24.0572C43.7218 24.8635 43.0281 25.501 42.2125 25.501Z" fill="#002D6E"/>
<path d="M35.4999 44.9795C36.3283 44.9795 36.9999 44.3079 36.9999 43.4795C36.9999 42.6511 36.3283 41.9795 35.4999 41.9795C34.6715 41.9795 33.9999 42.6511 33.9999 43.4795C33.9999 44.3079 34.6715 44.9795 35.4999 44.9795Z" fill="#002D6E"/>
<path d="M38.4811 40.3408C37.2811 40.3314 36.5217 39.8533 36.2874 39.6658C36.2405 39.6283 36.2405 39.5533 36.2874 39.5158C36.5217 39.3283 37.2905 38.8408 38.4999 38.8408C38.9217 38.8408 39.2686 39.1877 39.2499 39.6189C39.2405 40.0221 38.8936 40.3408 38.4811 40.3408Z" fill="#002D6E"/>
<path d="M29.9874 43.7452C30.5874 42.7139 31.3937 42.292 31.6749 42.1795C31.7312 42.1608 31.7874 42.1889 31.7968 42.2545C31.8437 42.5545 31.8812 43.4639 31.2718 44.5139C31.0562 44.8795 30.5874 45.0014 30.2218 44.7764C29.8843 44.5514 29.7812 44.092 29.9874 43.7452Z" fill="#002D6E"/>
<path d="M31.9374 40.3039C30.7468 38.2226 30.8218 36.4133 30.9156 35.8226C30.9343 35.7008 31.0562 35.6351 31.1687 35.6726C31.7312 35.8883 33.3437 36.732 34.5624 38.832C34.9843 39.5633 34.7218 40.5008 33.9718 40.9039C33.2406 41.2976 32.3406 41.007 31.9374 40.3039Z" fill="#002D6E"/>
<path d="M13 44.9902C13.8284 44.9902 14.5 44.3187 14.5 43.4902C14.5 42.6618 13.8284 41.9902 13 41.9902C12.1716 41.9902 11.5 42.6618 11.5 43.4902C11.5 44.3187 12.1716 44.9902 13 44.9902Z" fill="#002D6E"/>
<path d="M17.2188 44.4943C16.6282 43.4537 16.6563 42.5537 16.7032 42.2537C16.7125 42.1975 16.7688 42.16 16.825 42.1787C17.1063 42.2818 17.9125 42.7131 18.5219 43.7537C18.7375 44.1193 18.5969 44.5881 18.2219 44.7943C17.875 44.9912 17.425 44.8506 17.2188 44.4943Z" fill="#002D6E"/>
<path d="M10.0187 38.8311C11.2187 38.8404 11.9781 39.3186 12.2125 39.5061C12.2594 39.5436 12.2594 39.6186 12.2125 39.6561C11.9781 39.8436 11.2094 40.3311 9.99999 40.3311C9.57812 40.3311 9.23124 39.9842 9.24999 39.5529C9.26874 39.1498 9.61562 38.8311 10.0187 38.8311Z" fill="#002D6E"/>
<path d="M13.9751 38.8021C15.1844 36.7302 16.7876 35.8865 17.3407 35.6802C17.4532 35.6333 17.5751 35.7083 17.5938 35.8208C17.6876 36.4115 17.7626 38.2396 16.5532 40.3396C16.1313 41.0708 15.1844 41.3146 14.4626 40.8646C13.7688 40.4333 13.5626 39.5052 13.9751 38.8021Z" fill="#002D6E"/>
<path d="M1.75 25.4971C2.57843 25.4971 3.25 24.8255 3.25 23.9971C3.25 23.1686 2.57843 22.4971 1.75 22.4971C0.921573 22.4971 0.25 23.1686 0.25 23.9971C0.25 24.8255 0.921573 25.4971 1.75 25.4971Z" fill="#002D6E"/>
<path d="M2.98756 28.1504C3.58756 27.1192 4.39381 26.6973 4.67506 26.5848C4.73131 26.5661 4.78756 26.5942 4.79693 26.6598C4.84381 26.9598 4.88131 27.8692 4.27193 28.9192C4.05631 29.2848 3.58756 29.4067 3.22193 29.1817C2.88443 28.9661 2.78131 28.5067 2.98756 28.1504Z" fill="#002D6E"/>
<path d="M4.29066 19.0945C4.88129 20.1351 4.84379 21.0351 4.80629 21.3351C4.79692 21.3914 4.74067 21.4289 4.68442 21.4101C4.40317 21.307 3.59692 20.8758 2.98754 19.8351C2.77191 19.4695 2.91254 19.0008 3.28754 18.7945C3.63442 18.5976 4.08441 18.7383 4.29066 19.0945Z" fill="#002D6E"/>
<path d="M6.28746 22.4971C8.68746 22.5064 10.2156 23.4721 10.675 23.8471C10.7687 23.9221 10.7687 24.0627 10.675 24.1377C10.2062 24.5127 8.66871 25.4971 6.24058 25.4971C5.39683 25.4971 4.71246 24.7939 4.74058 23.9408C4.77808 23.1346 5.47183 22.4971 6.28746 22.4971Z" fill="#002D6E"/>
<path d="M13 6.00781C13.8284 6.00781 14.5 5.33624 14.5 4.50781C14.5 3.67939 13.8284 3.00781 13 3.00781C12.1716 3.00781 11.5 3.67939 11.5 4.50781C11.5 5.33624 12.1716 6.00781 13 6.00781Z" fill="#002D6E"/>
<path d="M10.0187 7.65723C11.2187 7.6666 11.9781 8.14473 12.2124 8.33223C12.2593 8.36973 12.2593 8.44473 12.2124 8.48223C11.9781 8.66973 11.2093 9.15723 9.99995 9.15723C9.57807 9.15723 9.24057 8.81035 9.24995 8.3791C9.2687 7.97598 9.61557 7.65723 10.0187 7.65723Z" fill="#002D6E"/>
<path d="M18.5218 4.25584C17.9218 5.28709 17.1156 5.70896 16.8343 5.82146C16.7781 5.84021 16.7218 5.81209 16.7124 5.74646C16.6656 5.44646 16.6281 4.53709 17.2374 3.48709C17.4531 3.12146 17.9218 2.99959 18.2874 3.22459C18.6249 3.44959 18.7281 3.90896 18.5218 4.25584Z" fill="#002D6E"/>
<path d="M16.5719 7.69486C17.7625 9.77611 17.6875 11.5855 17.5937 12.1761C17.575 12.298 17.4531 12.3636 17.3406 12.3261C16.7781 12.1105 15.1656 11.2667 13.9562 9.16674C13.5344 8.43549 13.7969 7.49799 14.5469 7.09486C15.2687 6.70111 16.1687 6.98236 16.5719 7.69486Z" fill="#002D6E"/>
<path d="M35.5 6.01953C36.3284 6.01953 37 5.34796 37 4.51953C37 3.6911 36.3284 3.01953 35.5 3.01953C34.6716 3.01953 34 3.6911 34 4.51953C34 5.34796 34.6716 6.01953 35.5 6.01953Z" fill="#002D6E"/>
<path d="M31.2905 3.5078C31.8811 4.54843 31.8436 5.44843 31.7968 5.74843C31.7874 5.80468 31.7311 5.84218 31.6749 5.82343C31.3936 5.7203 30.5874 5.28905 29.978 4.23905C29.7624 3.87343 29.903 3.40468 30.278 3.19843C30.6343 3.01093 31.0843 3.15155 31.2905 3.5078Z" fill="#002D6E"/>
<path d="M38.4811 9.16992C37.2811 9.16055 36.5217 8.68242 36.2874 8.49492C36.2405 8.45742 36.2405 8.38242 36.2874 8.34492C36.5217 8.15742 37.2905 7.66992 38.4999 7.66992C38.9217 7.66992 39.2592 8.0168 39.2499 8.44805C39.2405 8.85117 38.8936 9.16992 38.4811 9.16992Z" fill="#002D6E"/>
<path d="M34.5344 9.19722C33.325 11.2691 31.7219 12.1035 31.1687 12.3191C31.0562 12.366 30.9344 12.291 30.9156 12.1785C30.8219 11.5878 30.7469 9.75972 31.9562 7.65972C32.3781 6.92847 33.325 6.68472 34.0469 7.13472C34.7406 7.57535 34.9469 8.4941 34.5344 9.19722Z" fill="#002D6E"/>
</g>
<defs>
<clipPath id="clip0_1635_13027">
<rect width="48" height="48" fill="white" transform="translate(0.25)"/>
</clipPath>
</defs>
</svg>
